<svg version="1.1" xmlns="http://www.w3.org/2000/svg" xmlns:xlink="http://www.w3.org/1999/xlink" width="111.65314" height="165.70398" viewBox="0,0,111.65314,165.70398"><g transform="translate(-175.93634,-64.31681)"><g data-paper-data="{&quot;isPaintingLayer&quot;:true}" stroke-miterlimit="10" stroke-dasharray="" stroke-dashoffset="0" style="mix-blend-mode: normal"><g fill-rule="evenodd"><path d="M224.78949,200.77922c0.8,0.4 2.5,1.3 0.1,4.7c-2.4,3.4 -9.3,4.1 -10.1,4.1c-3.1,0.1 -6.9,0.1 -11.1,-1.3c-12.2,-4 -12.3,-17.1 -8.4,-19.2c3.8,-2.1 5.5,6 11,10.9c2.4,2.2 5.3,3 7.7,3.5c3.4,0.6 9.9,-3.2 10.8,-2.7z" fill="#ffab19" stroke="#001026" stroke-width="1.2" stroke-linecap="round" stroke-linejoin="round"/><path d="M199.98949,192.67922c1.6,2.7 4.7,6.5 4.7,6.5c0,0 -3.7,-0.9 -5.8,0.8c-1.7,1.3 -1.3,3.5 -1.1,4.2c-1.3,-1.3 -2.9,-3.1 -3.9,-6.6c-1,-3.5 0,-7.7 2,-8.3c2,-0.4 2.5,1.1 4.1,3.4z" fill="#ffffff" stroke="none" stroke-width="1" stroke-linecap="butt" stroke-linejoin="miter"/></g><path d="M229.78949,211.17922c-1.8,1.2 -8,5.6 -15.9,8.1l-0.4,0.1c-0.4,0.1 -0.6,0.6 -0.4,1c1.7,2.4 4.8,7.2 -0.7,8.9c-5.3,1.7 -15.2,-12.4 -11,-16.1c1.9,-1.4 3.6,-0.7 4.5,-0.3c0.5,0.2 1,0.2 1.5,0.1c1.2,-0.4 3.4,-1.2 5.1,-2.1c4.3,-2.2 5.3,-3.1 7.3,-4.6c2,-1.5 6.6,-5.2 10.3,-2c3.2,2.7 1.4,5.7 -0.3,6.9z" fill="#9966ff" fill-rule="evenodd" stroke="#001026" stroke-width="1.2" stroke-linecap="round" stroke-linejoin="round"/><path d="M245.68949,190.37922c0.5,0.4 6.6,7.6 8.6,5.8c2.4,-2.1 5.7,-6.2 9.3,-2.9c3.6,3.3 -3.2,8.9 -6.1,10.4c-6.9,3.1 -12.5,-2.8 -13.7,-4.4c-1.2,-1.6 -3.3,-4.3 -3.3,-6.9c0.1,-2.8 3.5,-3.5 5.2,-2z" fill="#9966ff" fill-rule="evenodd" stroke="#9966ff" stroke-width="1.2" stroke-linecap="round" stroke-linejoin="round"/><g fill="#9966ff" fill-rule="evenodd"><path d="M245.78949,213.67922c2.1,1.9 6.7,5.8 6.7,5.8c0,0 14.3,-2.5 14.3,4.7c0,4.3 -7.2,5.3 -16.9,4.4c-0.6,-0.1 -1.2,-0.3 -1.7,-0.7c-2.2,-1.9 -8.5,-7.5 -12.5,-11.4c-5.9,-5.8 -10.8,-9.6 -10.8,-9.6c-8.5,-8.3 -1.6,-11.8 1.1,-16.6c2.5,-4.1 3.6,-3.3 9.6,-2.1c3.4,0.5 5.4,0.8 7.6,0.7c3.3,-0.1 2.7,4.7 1.8,7.2c0,0 -1.4,3.7 -2.7,5.6c-1.6,2.3 -2.8,3.8 -4,4.7z" stroke="#001026" stroke-width="1.2" stroke-linecap="round" stroke-linejoin="round"/><path d="M237.38949,206.27922c0,0 -1.5,-1.2 -3.1,-2.7c-2,-1.8 -4,-3.3 -2,-6.4c1.8,-2.4 3.5,-5.6 8,-2.7c4.3,2.7 2.4,5.2 2.4,5.2c-2.2,4.5 -5.3,6.6 -5.3,6.6z" stroke="none" stroke-width="1" stroke-linecap="butt" stroke-linejoin="miter"/></g><path d="M222.28949,198.07922c2.2,2.8 5.6,6.3 1.3,9.2c-5.9,3.3 -10.8,-6.7 -11.8,-10.2c-0.9,-3.1 1.7,-5.1 3.9,-6.8c4.3,-3.1 7.9,-5.9 11.9,-4.4c5,1.8 1.4,5.8 -1.1,7.6c-1.5,1.1 -3,2.3 -4.1,3c-0.3,0.5 -0.4,1.1 -0.1,1.6z" fill="#ffab19" fill-rule="evenodd" stroke="#9966ff" stroke-width="1.2" stroke-linecap="round" stroke-linejoin="round"/><g fill-rule="evenodd"><path d="M253.78949,130.67922c0.3,-0.2 0.8,-0.1 0.9,0.3l2.6,10.7c0,0 6.4,4.7 8.3,8c3.2,5.5 3.3,10 3.3,10c0,0 7.1,2.1 8.3,7.8c1.2,5.7 -3.2,16.5 -22,20.2c-18.8,3.7 -33.9,-1.4 -41,-12.8c-7.1,-11.4 4.1,-25 3.5,-24.2l-2.1,-17.9c-0.1,-0.4 0.4,-0.7 0.8,-0.5l12.1,7.9c0,0 4.5,-1.7 9.2,-1.9c2.8,-0.2 5.2,0 7.5,0.4z" fill="#9966ff" stroke="#001026" stroke-width="1.2" stroke-linecap="butt" stroke-linejoin="miter"/><path d="M268.58949,160.07922c0,0 6.9,1.8 8.1,7.5c1.2,5.7 -3.6,16 -22.2,19.6c-24.2,5 -35.7,-9.4 -29,-20c6.7,-10.7 18.2,-1.6 26.6,-2.2c7.2,-0.5 8,-6.8 16.5,-4.9z" fill="#ffffff" stroke="none" stroke-width="1" stroke-linecap="butt" stroke-linejoin="miter"/><path d="M237.08949,170.77922c0,-0.4 0.4,-0.7 0.8,-0.6c1.9,0.7 7.3,2.3 13.3,2.7c5.4,0.3 8.6,0 10.1,-0.3c0.5,-0.1 0.9,0.4 0.7,0.9c-0.9,2.7 -4.7,10.2 -15.2,9.6c-9.1,-1 -10,-7.4 -9.7,-12.3z" fill="#ffffff" stroke="#001026" stroke-width="1.2" stroke-linecap="round" stroke-linejoin="round"/><path d="M286.98949,161.17922c-4.7,3.8 -11.9,3.9 -11.9,3.9" fill="none" stroke="#001026" stroke-width="1.2" stroke-linecap="round" stroke-linejoin="round"/><path d="M285.68948,172.37922c-6.3,0.5 -10.2,-1.4 -10.2,-1.4" fill="none" stroke="#001026" stroke-width="1.2" stroke-linecap="round" stroke-linejoin="round"/><path d="M251.68949,162.37922c2.1,0 4.3,0.2 4.4,0.9c0.1,1.4 -1.4,4.2 -3,4.3c-1.8,0.2 -6,-2.3 -6,-3.9c-0.1,-1.2 2.6,-1.3 4.6,-1.3z" fill="#001026" stroke="#001026" stroke-width="1.2" stroke-linecap="round" stroke-linejoin="round"/><path d="M206.68949,160.87922c0,0 8.6,2.8 12.1,5.9" fill="none" stroke="#001026" stroke-width="1.2" stroke-linecap="round" stroke-linejoin="round"/><path d="M219.08949,170.27922c-4.3,1.7 -11.7,0.6 -11.7,0.6" fill="none" stroke="#001026" stroke-width="1.2" stroke-linecap="round" stroke-linejoin="round"/><g><path d="M263.48949,150.67922c2.9,4.5 3,9.6 0.2,11.4c-2.8,1.8 -7.4,-0.3 -10.4,-4.8c-2.9,-4.5 -3,-9.6 -0.2,-11.4c2.8,-1.9 7.5,0.3 10.4,4.8z" fill="#ffffff" stroke="#001026" stroke-width="1.2" stroke-linecap="round" stroke-linejoin="round"/><path d="M263.08949,156.37922c0,1.1 -0.8,2 -1.8,2c-1,0 -1.8,-0.9 -1.8,-2c0,-1.1 0.8,-2 1.8,-2c1,0 1.8,0.9 1.8,2" fill="#001026" stroke="none" stroke-width="1" stroke-linecap="butt" stroke-linejoin="miter"/></g><g><path d="M238.68949,153.47922c3,4.4 2.8,9.8 0.1,11.7c-3.3,1.9 -7.7,0.5 -10.7,-3.9c-3.1,-4.4 -3.3,-10.1 -0.2,-12.3c3.1,-2.3 7.8,0.1 10.8,4.5z" fill="#ffffff" stroke="#001026" stroke-width="1.2" stroke-linecap="round" stroke-linejoin="round"/><path d="M238.08949,159.27922c0,1.1 -0.8,2 -1.8,2c-1,0 -1.8,-0.9 -1.8,-2c0,-1.1 0.8,-2 1.8,-2c1,0.1 1.8,0.9 1.8,2" fill="#001026" stroke="none" stroke-width="1" stroke-linecap="butt" stroke-linejoin="miter"/></g></g><path d="M191.89939,113.98089c-1.76777,1.76777 -3.53553,0 -3.53553,0l-0.74109,-0.77663c-2.00443,-2.67257 -4.00691,-5.58242 -6.66259,-7.67126c-0.90694,-0.71336 -2.17246,-0.98802 -2.90909,-1.87617c-1.33696,-1.61197 -1.67261,-4.24674 -2.07472,-6.21925c0,0 -0.49029,-2.45145 1.96116,-2.94174c2.45145,-0.49029 2.94174,1.96116 2.94174,1.96116c0.02631,0.13466 0.60293,3.56739 0.97844,3.95798c0.57224,0.59521 1.52483,0.67389 2.17952,1.17699c3.02542,2.32491 5.32276,5.59527 7.58552,8.61229l0.27663,0.24109c0,0 1.76777,1.76777 0,3.53553z" fill="#9966ff" fill-rule="nonzero" stroke="none" stroke-width="0.5" stroke-linecap="butt" stroke-linejoin="miter"/><path d="M199.05849,153.65888c-0.19782,0.47846 -0.59839,0.94315 -1.3526,1.26638c-2.29786,0.9848 -3.28266,-1.31306 -3.28266,-1.31306c-2.49567,-5.83225 -3.32726,-11.11891 -4.58197,-17.21683c-0.50696,-2.46382 -1.95152,-4.63832 -2.83597,-6.99315c-0.42322,-1.12683 -2.00793,-6.74536 -2.49677,-8.45945l-0.92899,-2.32247c-0.12865,-0.30123 -0.19986,-0.63286 -0.19986,-0.98112c0,-1.38071 1.11929,-2.5 2.5,-2.5c0.52532,0 1.0128,0.16203 1.41519,0.43883l2.92831,1.95221l-0.00346,0.00519c0.01228,0.00579 0.02455,0.0116 0.03682,0.01744c3.64964,1.73679 7.00072,5.08517 10.34863,7.39188c2.0186,1.39082 4.20381,2.48034 5.59491,4.6236c1.81841,2.8016 1.74883,6.80499 1.38631,10.00003c-0.48989,4.31765 -3.96739,7.46369 -5.58735,11.52355l-1.53901,1.82487c0,0 -0.57709,0.57709 -1.40154,0.74209zM197.68438,148.4625c1.30688,-2.91799 3.03342,-5.01495 4.66601,-7.75507c0.4126,-0.6925 0.24654,-4.0851 0.24817,-4.34216c0.01018,-1.60457 0.3804,-2.68596 -0.57269,-4.04448c-2.10908,-3.00626 -7.68036,-5.70298 -10.57387,-7.76991c-0.2801,-0.20008 -0.5736,-0.38598 -0.87213,-0.56656c0.49144,1.69303 0.95237,3.25411 1.07327,3.57467c0.98531,2.61252 2.4912,5.06072 3.07753,7.79061c0.35335,1.64517 0.23722,3.36187 0.51106,5.02212c0.45851,2.77993 1.3869,5.46967 2.44265,8.09078z" fill="#9966ff" fill-rule="nonzero" stroke="none" stroke-width="0.5" stroke-linecap="butt" stroke-linejoin="miter"/><path d="M254.91067,104.74332c1.76777,1.76777 0,3.53553 0,3.53553l-0.90257,0.89474c-2.67938,3.05255 -4.55157,7.34285 -7.80548,9.81707c-4.6011,3.4986 -13.60401,5.21703 -19.09409,3.33624c-2.10429,-0.72089 -4.42463,-1.51219 -5.84049,-3.22773c-1.02022,-1.23616 -0.49602,-3.16698 -0.74402,-4.75047c-0.71025,-3.24253 -1.14893,-4.15896 -0.68522,-7.8307c0.78402,-6.208 4.61639,-11.5753 3.06238,-18.09761c-0.30687,-1.28796 -0.52095,-2.65738 -1.22583,-3.77817c-0.73217,-1.16416 -6.01193,-2.78489 -6.16798,-2.8346c-3.60447,-1.14826 -8.9257,-0.69597 -12.18853,1.41588c-4.53839,2.93745 -7.1477,6.98416 -9.62721,11.60034c0,0 -1.18525,2.20118 -3.38643,1.01593c-2.20118,-1.18525 -1.01593,-3.38643 -1.01593,-3.38643c5.44738,-10.09321 15.08769,-19.35305 27.64172,-15.43876c2.28199,0.71151 7.14096,2.28527 8.73701,4.61789c7.1067,10.38635 -2.61293,21.26874 -0.20367,31.94598c-0.02217,0.90067 -0.61602,1.98805 -0.06652,2.70202c0.67983,0.88333 2.01634,0.99961 3.10378,1.2444c4.34985,0.97921 10.97948,0.33494 14.64411,-2.4909c2.90946,-2.24351 4.67022,-6.36862 7.09951,-9.15292l1.12992,-1.13775c0,0 1.76777,-1.76777 3.53553,0z" fill="#9966ff" fill-rule="nonzero" stroke="none" stroke-width="0.5" stroke-linecap="butt" stroke-linejoin="miter"/><path d="M192.89147,103.61453c0,-1.38071 1.11929,-2.5 2.5,-2.5c1.38071,0 2.5,1.11929 2.5,2.5c0,1.38071 -1.11929,2.5 -2.5,2.5c-1.38071,0 -2.5,-1.11929 -2.5,-2.5z" fill="#9966ff" fill-rule="nonzero" stroke="none" stroke-width="0.5" stroke-linecap="butt" stroke-linejoin="miter"/><path d="M261.24002,64.31681c2.5,0 2.5,2.5 2.5,2.5l-0.01529,2.2128c-1.11277,9.96403 -4.697,19.75201 -7.33551,29.43255c0,0 -0.65779,2.41191 -3.0697,1.75412c-2.41191,-0.65779 -1.75412,-3.0697 -1.75412,-3.0697c0.87539,-3.20783 2.01616,-6.34017 2.86434,-9.55529c0.64473,-2.44391 0.73601,-5.02397 1.50476,-7.43175c1.41929,-4.44533 2.30906,-7.05142 2.82081,-11.68208l-0.01529,-1.66064c0,0 0,-2.5 2.5,-2.5z" fill="#9966ff" fill-rule="nonzero" stroke="none" stroke-width="0.5" stroke-linecap="butt" stroke-linejoin="miter"/></g></g></svg>