<svg version="1.1" xmlns="http://www.w3.org/2000/svg" xmlns:xlink="http://www.w3.org/1999/xlink" width="249.65917" height="141.2234" viewBox="0,0,249.65917,141.2234"><g transform="translate(-141.81096,-89.11816)"><g data-paper-data="{&quot;isPaintingLayer&quot;:true}" stroke-miterlimit="10" stroke-dasharray="" stroke-dashoffset="0" style="mix-blend-mode: normal"><g fill-rule="evenodd"><path d="M224.7,201.1c0.8,0.4 2.5,1.3 0.1,4.7c-2.4,3.4 -9.3,4.1 -10.1,4.1c-3.1,0.1 -6.9,0.1 -11.1,-1.3c-12.2,-4 -12.3,-17.1 -8.4,-19.2c3.8,-2.1 5.5,6 11,10.9c2.4,2.2 5.3,3 7.7,3.5c3.4,0.6 9.9,-3.2 10.8,-2.7z" fill="#ffab19" stroke="#001026" stroke-width="1.2" stroke-linecap="round" stroke-linejoin="round"/><path d="M199.9,193c1.6,2.7 4.7,6.5 4.7,6.5c0,0 -3.7,-0.9 -5.8,0.8c-1.7,1.3 -1.3,3.5 -1.1,4.2c-1.3,-1.3 -2.9,-3.1 -3.9,-6.6c-1,-3.5 0,-7.7 2,-8.3c2,-0.4 2.5,1.1 4.1,3.4z" fill="#ffffff" stroke="none" stroke-width="1" stroke-linecap="butt" stroke-linejoin="miter"/></g><path d="M229.7,211.5c-1.8,1.2 -8,5.6 -15.9,8.1l-0.4,0.1c-0.4,0.1 -0.6,0.6 -0.4,1c1.7,2.4 4.8,7.2 -0.7,8.9c-5.3,1.7 -15.2,-12.4 -11,-16.1c1.9,-1.4 3.6,-0.7 4.5,-0.3c0.5,0.2 1,0.2 1.5,0.1c1.2,-0.4 3.4,-1.2 5.1,-2.1c4.3,-2.2 5.3,-3.1 7.3,-4.6c2,-1.5 6.6,-5.2 10.3,-2c3.2,2.7 1.4,5.7 -0.3,6.9z" fill="#9966ff" fill-rule="evenodd" stroke="#001026" stroke-width="1.2" stroke-linecap="round" stroke-linejoin="round"/><path d="M245.6,190.7c0.5,0.4 6.6,7.6 8.6,5.8c2.4,-2.1 5.7,-6.2 9.3,-2.9c3.6,3.3 -3.2,8.9 -6.1,10.4c-6.9,3.1 -12.5,-2.8 -13.7,-4.4c-1.2,-1.6 -3.3,-4.3 -3.3,-6.9c0.1,-2.8 3.5,-3.5 5.2,-2z" fill="#9966ff" fill-rule="evenodd" stroke="#9966ff" stroke-width="1.2" stroke-linecap="round" stroke-linejoin="round"/><g fill="#9966ff" fill-rule="evenodd"><path d="M245.7,214c2.1,1.9 6.7,5.8 6.7,5.8c0,0 14.3,-2.5 14.3,4.7c0,4.3 -7.2,5.3 -16.9,4.4c-0.6,-0.1 -1.2,-0.3 -1.7,-0.7c-2.2,-1.9 -8.5,-7.5 -12.5,-11.4c-5.9,-5.8 -10.8,-9.6 -10.8,-9.6c-8.5,-8.3 -1.6,-11.8 1.1,-16.6c2.5,-4.1 3.6,-3.3 9.6,-2.1c3.4,0.5 5.4,0.8 7.6,0.7c3.3,-0.1 2.7,4.7 1.8,7.2c0,0 -1.4,3.7 -2.7,5.6c-1.6,2.3 -2.8,3.8 -4,4.7z" stroke="#001026" stroke-width="1.2" stroke-linecap="round" stroke-linejoin="round"/><path d="M237.3,206.6c0,0 -1.5,-1.2 -3.1,-2.7c-2,-1.8 -4,-3.3 -2,-6.4c1.8,-2.4 3.5,-5.6 8,-2.7c4.3,2.7 2.4,5.2 2.4,5.2c-2.2,4.5 -5.3,6.6 -5.3,6.6z" stroke="none" stroke-width="1" stroke-linecap="butt" stroke-linejoin="miter"/></g><path d="M222.2,198.4c2.2,2.8 5.6,6.3 1.3,9.2c-5.9,3.3 -10.8,-6.7 -11.8,-10.2c-0.9,-3.1 1.7,-5.1 3.9,-6.8c4.3,-3.1 7.9,-5.9 11.9,-4.4c5,1.8 1.4,5.8 -1.1,7.6c-1.5,1.1 -3,2.3 -4.1,3c-0.3,0.5 -0.4,1.1 -0.1,1.6z" fill="#ffab19" fill-rule="evenodd" stroke="#9966ff" stroke-width="1.2" stroke-linecap="round" stroke-linejoin="round"/><g fill-rule="evenodd"><path d="M253.7,131c0.3,-0.2 0.8,-0.1 0.9,0.3l2.6,10.7c0,0 6.4,4.7 8.3,8c3.2,5.5 3.3,10 3.3,10c0,0 7.1,2.1 8.3,7.8c1.2,5.7 -3.2,16.5 -22,20.2c-18.8,3.7 -33.9,-1.4 -41,-12.8c-7.1,-11.4 4.1,-25 3.5,-24.2l-2.1,-17.9c-0.1,-0.4 0.4,-0.7 0.8,-0.5l12.1,7.9c0,0 4.5,-1.7 9.2,-1.9c2.8,-0.2 5.2,0 7.5,0.4z" fill="#9966ff" stroke="#001026" stroke-width="1.2" stroke-linecap="butt" stroke-linejoin="miter"/><path d="M268.5,160.4c0,0 6.9,1.8 8.1,7.5c1.2,5.7 -3.6,16 -22.2,19.6c-24.2,5 -35.7,-9.4 -29,-20c6.7,-10.7 18.2,-1.6 26.6,-2.2c7.2,-0.5 8,-6.8 16.5,-4.9z" fill="#ffffff" stroke="none" stroke-width="1" stroke-linecap="butt" stroke-linejoin="miter"/><path d="M237,171.1c0,-0.4 0.4,-0.7 0.8,-0.6c1.9,0.7 7.3,2.3 13.3,2.7c5.4,0.3 8.6,0 10.1,-0.3c0.5,-0.1 0.9,0.4 0.7,0.9c-0.9,2.7 -4.7,10.2 -15.2,9.6c-9.1,-1 -10,-7.4 -9.7,-12.3z" fill="#ffffff" stroke="#001026" stroke-width="1.2" stroke-linecap="round" stroke-linejoin="round"/><path d="M286.9,161.5c-4.7,3.8 -11.9,3.9 -11.9,3.9" fill="none" stroke="#001026" stroke-width="1.2" stroke-linecap="round" stroke-linejoin="round"/><path d="M285.59999,172.7c-6.3,0.5 -10.2,-1.4 -10.2,-1.4" fill="none" stroke="#001026" stroke-width="1.2" stroke-linecap="round" stroke-linejoin="round"/><path d="M251.6,162.7c2.1,0 4.3,0.2 4.4,0.9c0.1,1.4 -1.4,4.2 -3,4.3c-1.8,0.2 -6,-2.3 -6,-3.9c-0.1,-1.2 2.6,-1.3 4.6,-1.3z" fill="#001026" stroke="#001026" stroke-width="1.2" stroke-linecap="round" stroke-linejoin="round"/><path d="M206.6,161.2c0,0 8.6,2.8 12.1,5.9" fill="none" stroke="#001026" stroke-width="1.2" stroke-linecap="round" stroke-linejoin="round"/><path d="M219,170.6c-4.3,1.7 -11.7,0.6 -11.7,0.6" fill="none" stroke="#001026" stroke-width="1.2" stroke-linecap="round" stroke-linejoin="round"/><g><path d="M263.4,151c2.9,4.5 3,9.6 0.2,11.4c-2.8,1.8 -7.4,-0.3 -10.4,-4.8c-2.9,-4.5 -3,-9.6 -0.2,-11.4c2.8,-1.9 7.5,0.3 10.4,4.8z" fill="#ffffff" stroke="#001026" stroke-width="1.2" stroke-linecap="round" stroke-linejoin="round"/><path d="M263,156.7c0,1.1 -0.8,2 -1.8,2c-1,0 -1.8,-0.9 -1.8,-2c0,-1.1 0.8,-2 1.8,-2c1,0 1.8,0.9 1.8,2" fill="#001026" stroke="none" stroke-width="1" stroke-linecap="butt" stroke-linejoin="miter"/></g><g><path d="M238.6,153.8c3,4.4 2.8,9.8 0.1,11.7c-3.3,1.9 -7.7,0.5 -10.7,-3.9c-3.1,-4.4 -3.3,-10.1 -0.2,-12.3c3.1,-2.3 7.8,0.1 10.8,4.5z" fill="#ffffff" stroke="#001026" stroke-width="1.2" stroke-linecap="round" stroke-linejoin="round"/><path d="M238,159.6c0,1.1 -0.8,2 -1.8,2c-1,0 -1.8,-0.9 -1.8,-2c0,-1.1 0.8,-2 1.8,-2c1,0.1 1.8,0.9 1.8,2" fill="#001026" stroke="none" stroke-width="1" stroke-linecap="butt" stroke-linejoin="miter"/></g></g><path d="M226.76036,97.2064c0.19399,-0.74019 0.75808,-1.81634 2.39832,-1.81634c2.5,0 2.5,2.5 2.5,2.5l-0.5,1.79866c-0.65616,0.8681 -1.34976,1.65706 -2.07067,2.39643c2.07035,-0.12738 4.14226,-0.26297 6.21742,-0.40058l2.19489,-0.02253c0,0 2.49991,-0.02089 2.5208,2.47902c0.02089,2.49991 -2.47902,2.5208 -2.47902,2.5208l-1.90584,0.01174c-3.04601,0.20199 -6.08515,0.39933 -9.12262,0.57314c7.19347,5.20117 14.88176,9.59929 22.73599,13.7282l3.39793,1.12431c0,0 2.37171,0.79057 1.58114,3.16228c-0.79057,2.37171 -3.16228,1.58114 -3.16228,1.58114l-3.76996,-1.26499c-7.67793,-3.97969 -15.18454,-8.26499 -22.25594,-13.23979c0.02286,0.12292 0.42467,2.45935 -1.96212,2.93671c-2.45145,0.49029 -2.94174,-1.96116 -2.94174,-1.96116l-0.33694,-1.75726c-0.02936,-0.3257 -0.05891,-0.65084 -0.08854,-0.97549c-1.45061,1.56976 -2.79511,3.24523 -4.23671,4.82412c0,0 -1.68567,1.84621 -3.53189,0.16054c-1.84621,-1.68567 -0.16054,-3.53189 -0.16054,-3.53189c1.28262,-1.40478 2.49735,-2.87735 3.76779,-4.29439c-2.52791,0.07474 -5.05897,0.11753 -7.59615,0.11753c0,0 -2.5,0 -2.5,-2.5c0,-2.5 2.5,-2.5 2.5,-2.5c1.51344,0 3.02466,-0.0155 4.53433,-0.0441c-1.4369,-1.07269 -2.90194,-2.1239 -4.42777,-3.14098c0,0 -2.08013,-1.38675 -0.69338,-3.46688c1.38675,-2.08013 3.46688,-0.69338 3.46688,-0.69338c2.83124,1.88775 5.46694,3.89423 8.09605,5.93728c-0.20049,-2.85451 -0.33498,-5.71804 -0.33498,-8.63575c0,0 0,-2.5 2.5,-2.5c2.5,0 2.5,2.5 2.5,2.5c0,2.50389 0.1013,4.96674 0.25927,7.41883c1.02382,-0.91467 2.00387,-1.89176 2.90629,-3.02524z" fill="#ff0000" fill-rule="nonzero" stroke="none" stroke-width="0.5" stroke-linecap="butt" stroke-linejoin="miter"/><path d="M186.85411,89.4497c2.46712,0.4041 2.06302,2.87123 2.06302,2.87123l-0.29603,1.79147c-0.3723,3.16414 -0.76532,6.32596 -1.18634,9.48399c0,0 -0.33041,2.47807 -2.80848,2.14766c-2.47807,-0.33041 -2.14766,-2.80848 -2.14766,-2.80848c0.41772,-3.1325 0.80753,-6.26879 1.17672,-9.40738l0.32753,-2.01547c0,0 0.4041,-2.46712 2.87123,-2.06302z" fill="#ff0000" fill-rule="nonzero" stroke="none" stroke-width="0.5" stroke-linecap="butt" stroke-linejoin="miter"/><path d="M183.65134,117.60176c0,-1.38071 1.11929,-2.5 2.5,-2.5c1.38071,0 2.5,1.11929 2.5,2.5c0,1.38071 -1.11929,2.5 -2.5,2.5c-1.38071,0 -2.5,-1.11929 -2.5,-2.5z" fill="#ff0000" fill-rule="nonzero" stroke="none" stroke-width="0.5" stroke-linecap="butt" stroke-linejoin="miter"/><path d="M196.79247,91.61816c0,-1.38071 1.11929,-2.5 2.5,-2.5c1.38071,0 2.5,1.11929 2.5,2.5c0,1.38071 -1.11929,2.5 -2.5,2.5c-1.38071,0 -2.5,-1.11929 -2.5,-2.5z" fill="#ff0000" fill-rule="nonzero" stroke="none" stroke-width="0.5" stroke-linecap="butt" stroke-linejoin="miter"/><path d="M214.52942,222.23473l-2.61995,-2.06645c6.21249,-6.93256 15.50629,-9.76256 23.79489,-13.54961c10.87671,-4.96955 21.43714,-10.11059 33.28226,-12.3996c7.5559,-1.46014 15.78358,-1.34557 23.45553,-1.99475c14.95038,-1.26507 29.90555,-2.46518 44.86127,-3.66533c6.30536,-0.50599 13.40954,-0.19828 19.58019,-1.54526c5.94315,-1.29732 12.11304,-4.70132 17.79727,-6.89446c1.47698,-0.56986 2.88679,-1.1907 4.29438,-1.74527c-5.05455,-0.09069 -10.0757,-0.30486 -15.15009,-0.64549c-13.30339,-0.89303 -26.60679,-1.78607 -39.91018,-2.6791c-6.6459,-0.44613 -13.54904,-0.41839 -20.14081,-1.35901c-14.76526,-2.10694 -29.56152,-6.4933 -44.13371,-9.69766c-3.25555,-0.71588 -6.58866,-1.14193 -9.76666,-2.14764c-2.27142,-0.71882 -5.51047,-0.49688 -6.66513,-2.58083c-0.9388,-1.69437 1.27077,-3.69032 2.27151,-5.34887c2.00684,-3.32598 7.40379,-4.85155 10.61874,-6.43378c10.46765,-5.15165 20.9353,-10.30329 31.40294,-15.45494c4.16624,-2.05041 9.32542,-3.79767 13.14007,-6.43649c2.9707,-2.05501 4.55507,-4.61561 7.29732,-6.29886l-0.28261,-0.30154c-13.54519,-1.15645 -27.0867,-2.16883 -40.64986,-3.0936c-23.28207,-1.58941 -46.33429,-5.86835 -69.57738,-7.62092c-6.58194,-0.49629 -13.27722,-0.38217 -19.87607,-0.57344c0,0 -2.49895,-0.07243 -2.42652,-2.57138c0.07243,-2.49895 2.57138,-2.42652 2.57138,-2.42652c6.67611,0.19351 13.44804,0.08339 20.10714,0.58549c23.23166,1.75171 46.2711,6.03376 69.54156,7.61835c13.70109,0.93416 27.38147,1.94388 41.06289,3.13325l0.10551,0.03974l0.00404,-0.0229l4.88183,0.8615c1.19431,0.18827 2.10762,1.22217 2.10762,2.46939c0,0.72198 -0.30605,1.37248 -0.79548,1.82884l-3.64315,3.41441l-0.10647,-0.1136c-2.21822,2.698 -4.66272,5.23683 -7.47725,7.18381c-0.19951,0.13801 -8.87728,4.39934 -9.29061,4.60276c-7.47689,3.67975 -14.95378,7.35949 -22.43067,11.03924c-5.98134,2.94371 -11.9515,5.9116 -17.94454,8.83139c-1.59922,0.77913 -2.94894,1.99348 -4.47374,2.90974c-0.28456,0.17099 -1.04831,0.26711 -1.40835,0.30265c4.5355,-0.33194 8.28549,0.73403 12.77574,1.72141c14.44903,3.17727 29.12671,7.54213 43.76622,9.63113c6.46749,0.92288 13.24838,0.88235 19.76937,1.32009c13.30339,0.89303 26.60679,1.78607 39.91018,2.6791c6.63214,0.4452 13.16793,0.67074 19.81498,0.68377l4.99937,0.0098c1.37875,0.00231 2.49572,1.12071 2.49572,2.5c0,0.84772 -0.42193,1.59689 -1.06724,2.04897l-4.03307,2.8996l-0.02023,-0.02814c-0.08222,0.0669 -0.16548,0.13269 -0.24983,0.19729c-1.40738,1.07782 -3.30162,1.29189 -4.95422,1.93325c-4.66124,1.80899 -9.3297,3.59966 -13.99449,5.39947c-0.09686,0.03737 -8.93097,3.45545 -9.15604,3.50489c-7.99217,1.75564 -17.11034,1.39904 -25.27562,2.05428c-13.2872,1.06626 -26.5732,2.13967 -39.85566,3.2636c-7.51486,0.63589 -15.61691,0.49306 -23.01295,1.93731c-11.41803,2.22964 -21.57792,7.22948 -32.06855,12.02264c-7.3244,3.34651 -16.06832,5.85102 -21.68765,11.83169c-0.13186,0.18195 -0.23536,0.28544 -0.23536,0.28544l-0.01635,-0.01289c-0.06651,0.07328 -0.13257,0.14708 -0.19815,0.2214z" fill="#9966ff" fill-rule="nonzero" stroke="none" stroke-width="0.5" stroke-linecap="butt" stroke-linejoin="miter"/><path d="M284.2596,127.84681c1.56174,1.95217 -0.39043,3.51391 -0.39043,3.51391l-1.25209,0.95153c-8.55436,9.77378 -17.35131,19.23816 -25.11225,29.6789c-5.96221,8.02093 -11.80647,16.44837 -18.43888,23.93313c-0.98252,1.10879 -7.65908,7.70746 -8.61033,7.89093c-6.21313,1.19835 -5.34544,-6.81532 -5.34671,-10.02233c-0.00387,-9.76203 0.09386,-19.53441 -0.23936,-29.29124c-0.06672,-1.95358 -0.27147,-3.7939 -0.31409,-5.58207c-3.49698,7.68319 -6.42381,15.3774 -9.27166,23.44561c-1.65505,4.68892 -3.43802,9.31433 -5.23169,13.95172c-0.61761,1.59678 -0.89397,3.37249 -1.85454,4.78969c-0.02568,0.03789 -0.0516,0.07559 -0.07775,0.11311l0.01843,0.00954l-1.84519,3.56427c-0.40739,0.82793 -1.2594,1.39767 -2.24448,1.39767c-1.38071,0 -2.5,-1.11929 -2.5,-2.5c0,-0.03388 0.00067,-0.06761 0.00201,-0.10117l0.17425,-4.98315l0.01597,0.00056l-0.01323,-0.05928c1.22214,-14.89808 1.69879,-29.85228 1.66893,-44.80001c-0.00634,-3.17583 -0.46424,-6.77688 -0.31877,-10.18271c-3.06225,5.47803 -6.15379,10.94535 -9.08851,16.48823c-1.99201,3.76236 -3.75437,7.66726 -5.63069,11.4883c-0.76211,1.55199 -1.19851,3.31303 -2.2894,4.65447c-0.0395,0.04857 -0.07933,0.09682 -0.11947,0.14477l0.01877,0.01299l-2.80882,4.05718c-0.4489,0.66739 -1.21112,1.10647 -2.0759,1.10647c-1.38071,0 -2.5,-1.11929 -2.5,-2.5v-2.51487l0.05392,0l-0.0498,-0.14352c0.86648,-7.59104 1.50424,-15.1805 2.11809,-22.79604c0.05352,-0.66394 0.06742,-1.33279 0.06262,-2.00374c-1.45522,3.56997 -2.87,7.1573 -4.26438,10.74366c-1.47221,3.78655 -2.22087,8.42325 -4.22956,11.92962c-0.00257,0.00448 -0.00514,0.00896 -0.00771,0.01344l0.00247,0.00091l-1.70836,4.63698c-0.33639,0.98341 -1.26863,1.69047 -2.36602,1.69047c-1.38071,0 -2.5,-1.11929 -2.5,-2.5c0,-0.08694 0.00444,-0.17284 0.0131,-0.25749l0.31153,-3.4268l0.00346,0.00031l-0.00258,-0.00975c1.10913,-11.25416 2.57741,-22.39576 4.85929,-33.48539c0.12335,-0.59945 0.24143,-1.21435 0.35808,-1.84016c-2.60353,6.30181 -4.48296,12.85554 -7.01371,19.21203c-2.3438,5.88693 -5.44136,11.44186 -7.85671,17.27896c-3.85544,9.31732 -7.18748,19.10102 -9.63841,28.91209c0,0 -0.60634,2.42536 -3.0317,1.81902c-2.42536,-0.60634 -1.81902,-3.0317 -1.81902,-3.0317c2.51379,-10.04787 5.92068,-20.0693 9.87055,-29.6148c2.41034,-5.82499 5.50483,-11.36991 7.84257,-17.24451c3.10738,-7.80867 5.26572,-15.8886 8.91255,-23.479c1.38563,-2.98673 2.71854,-5.99848 3.99768,-9.03234l1.21748,-2.96632c0.36014,-0.93837 1.26969,-1.60447 2.33482,-1.60447c1.29267,0 2.35619,0.98109 2.48657,2.23928l0.58051,4.93437l-0.04543,0.00535c0.02276,0.13211 0.04286,0.26487 0.06007,0.39833c0.23161,1.79609 -0.69546,3.55482 -1.08162,5.32414c-0.70802,3.24403 -1.60768,6.44521 -2.27688,9.69746c-1.04136,5.06087 -1.90987,10.13204 -2.65076,15.22008c2.20409,-5.7459 4.60682,-11.44258 7.06361,-17.05793l0.04058,-0.03803l-0.01827,-0.00892l1.11542,-2.28577c0.39615,-0.85775 1.26399,-1.45297 2.27085,-1.45297c1.38071,0 2.5,1.11929 2.5,2.5v5c0.35629,2.3078 -0.2254,7.89813 -0.40875,10.18427c-0.37217,4.64057 -0.74933,9.27214 -1.18825,13.89964c0.51701,-0.97695 1.05688,-1.96924 1.56812,-3.01219c4.70083,-9.58969 9.97452,-18.8607 15.13705,-28.20882l2.17145,-4.03269c0.41446,-0.80748 1.25547,-1.35997 2.22553,-1.35997c1.34191,0 2.43688,1.05725 2.49737,2.38422l0.26197,4.97747l-0.00883,0.00046c0.00382,0.0209 0.00761,0.0418 0.01135,0.06272c1.11258,6.21267 0.02851,13.73763 0.04088,20.06318c0.01991,10.18465 -0.33388,20.40083 -0.9884,30.57885c0.50939,-1.30818 1.01284,-2.61861 1.49914,-3.93552c4.18993,-11.3466 8.00852,-22.35813 13.30597,-33.24698l0.00931,-0.01053l-0.00327,-0.00163l1.86193,-3.72387c0.40086,-0.84561 1.26228,-1.43041 2.26029,-1.43041c1.27828,0 2.33249,0.95937 2.48187,2.19737l0.67077,4.91899l-0.0161,0.0022c0.01019,0.04121 0.0202,0.08247 0.03004,0.12379c0.00497,0.02087 0.34505,10.01683 0.34859,10.12071c0.17141,5.02692 0.19394,10.04171 0.21619,15.0712c0.02121,4.79679 0.02718,9.59338 0.02608,14.39022c-0.00018,0.80372 0.01042,1.60753 -0.00216,2.41115c-0.01395,0.89134 -0.82024,3.39008 -0.3148,2.65577c1.57761,-2.29198 3.68647,-4.16871 5.53181,-6.2512c3.25548,-3.67386 6.12809,-7.82588 9.15688,-11.68992c3.07373,-3.92137 6.03911,-7.91146 9.01137,-11.91004c7.84086,-10.54827 16.72259,-20.11203 25.36217,-29.98858l1.8915,-1.56335c0,0 1.95217,-1.56174 3.51391,0.39043z" fill="#66e5ff" fill-rule="nonzero" stroke="none" stroke-width="0.5" stroke-linecap="butt" stroke-linejoin="miter"/></g></g></svg>